<?xml version="1.0" encoding="iso-8859-1"?>
<!-- Generator: Adobe Illustrator 19.0.0, SVG Export Plug-In . SVG Version: 6.00 Build 0)  -->
<svg version="1.1" id="Layer_1" xmlns="http://www.w3.org/2000/svg" xmlns:xlink="http://www.w3.org/1999/xlink" x="0px" y="0px"
	 viewBox="0 0 512 512" style="enable-background:new 0 0 512 512;" xml:space="preserve">
<circle style="fill:#366796;" cx="256" cy="256" r="256"/>
<path style="fill:#273B7A;" d="M353.04,131.224L164.068,384.083L289.626,509.8C404.558,494.72,495.488,403.409,509.98,288.294
	L353.04,131.224z"/>
<circle style="fill:#919191;" cx="178.217" cy="150.394" r="27.17"/>
<circle style="fill:#727171;" cx="333.783" cy="150.394" r="27.17"/>
<path style="fill:#E5E1DF;" d="M354.22,309.227c3.367-14.276,5.215-30.782,5.215-49.84c0-96.089-46.309-137.323-103.434-137.323
	s-103.434,41.234-103.434,137.323c0,17.618,1.57,33.068,4.465,46.583c-9.23,10.49-14.526,22.609-14.526,35.531
	c0,39.824,50.042,72.108,111.769,72.108s111.769-32.284,111.769-72.108C366.046,329.895,361.77,318.94,354.22,309.227z"/>
<path style="fill:#C4C2C0;" d="M366.046,341.501c0-11.605-4.275-22.562-11.826-32.275c3.367-14.276,5.215-30.782,5.215-49.84
	c0-96.089-46.309-137.323-103.434-137.323c-0.193,0-0.381,0.012-0.574,0.014v291.512
	C316.623,413.191,366.046,381.076,366.046,341.501z"/>
<g>
	<circle style="fill:#3A3A3A;" cx="197.215" cy="348.918" r="13.622"/>
	<circle style="fill:#3A3A3A;" cx="314.785" cy="348.918" r="13.622"/>
	<circle style="fill:#3A3A3A;" cx="224.228" cy="231.589" r="7.961"/>
	<circle style="fill:#3A3A3A;" cx="287.772" cy="231.589" r="7.961"/>
</g>
<g>
</g>
<g>
</g>
<g>
</g>
<g>
</g>
<g>
</g>
<g>
</g>
<g>
</g>
<g>
</g>
<g>
</g>
<g>
</g>
<g>
</g>
<g>
</g>
<g>
</g>
<g>
</g>
<g>
</g>
</svg>
