<?xml version="1.0" encoding="iso-8859-1"?>
<!-- Generator: Adobe Illustrator 19.0.0, SVG Export Plug-In . SVG Version: 6.00 Build 0)  -->
<svg version="1.1" id="Layer_1" xmlns="http://www.w3.org/2000/svg" xmlns:xlink="http://www.w3.org/1999/xlink" x="0px" y="0px"
	 viewBox="0 0 512 512" style="enable-background:new 0 0 512 512;" xml:space="preserve">
<path style="fill:#DDDD47;" d="M256.026,512c-0.924,0-1.842-0.006-2.771-0.022c-81.339-1.478-147.51-70.878-147.51-154.705v-15.803
	c0-7.141-4.581-13.369-11.673-15.869C41.111,306.645,5.576,256.315,5.576,200.339c0-4.843,2.104-9.499,5.766-12.674
	c3.663-3.174,8.549-4.63,13.309-3.962l109.74,15.803c40.787,5.94,71.524,41.466,71.524,82.638v79.579
	c0,14.678,6.451,28.586,17.694,38.15c11.413,9.701,25.961,13.673,40.949,11.26c23.651-3.929,41.526-26.798,41.526-53.193v-75.796
	c0-41.172,30.738-76.698,71.497-82.632l109.767-15.809c4.788-0.69,9.652,0.739,13.309,3.908c3.663,3.174,5.766,7.776,5.766,12.619
	v0.109c0,55.976-35.537,106.305-88.425,125.234c-7.163,2.528-11.744,8.755-11.744,15.896v20.254
	c0,40.65-15.973,78.73-44.976,107.218C332.947,496.772,295.661,512,256.026,512z"/>
<path style="fill:#C7D100;" d="M487.348,183.704l-109.767,15.809c-40.759,5.934-71.497,41.46-71.497,82.632v75.796
	c0,26.396-17.875,49.264-41.526,53.193c-2.886,0.464-5.725,0.484-8.559,0.48V512c0.008,0,0.019,0,0.019,0
	c39.643,0,76.929-15.228,105.259-43.058c29.005-28.488,44.976-66.568,44.976-107.218v-20.254c0-7.141,4.581-13.369,11.744-15.896
	c52.89-18.929,88.425-69.258,88.425-125.234v-0.109c0-4.843-2.104-9.445-5.766-12.619C497,184.443,492.136,183.014,487.348,183.704z
	"/>
<path style="fill:#7CCC92;" d="M256.239,445.192c-19.83,0-39.047-6.945-54.259-19.885c-18.723-15.918-29.455-39.096-29.455-63.584
	v-79.578c0-24.705-18.45-46.026-42.922-49.591L19.891,216.757c-8.228-1.184-14.331-8.244-14.314-16.559
	C5.691,138.141,47.429,85.937,106.638,71.28C112.554,31.009,147.33,0,189.22,0c27.276,0,51.536,13.151,66.78,33.444
	C271.243,13.151,295.503,0,322.779,0c41.89,0,76.665,31.009,82.583,71.28c59.209,14.657,100.946,66.861,101.061,128.918
	c0.017,8.315-6.087,15.374-14.314,16.559l-109.74,15.803c-24.445,3.559-42.895,24.88-42.895,49.585v75.796
	c0,42.531-29.879,79.561-69.502,86.142C265.39,444.829,260.798,445.192,256.239,445.192z"/>
<path style="fill:#34B772;" d="M256.239,445.192c4.56,0,9.152-0.364,13.733-1.109c39.624-6.581,69.502-43.613,69.502-86.142v-75.796
	c0-24.705,18.45-46.026,42.895-49.585l109.74-15.803c8.228-1.184,14.331-8.244,14.314-16.559
	C506.309,138.14,464.571,85.937,405.362,71.28C399.444,31.009,364.668,0,322.779,0c-27.276,0-51.536,13.151-66.78,33.444v411.738
	C256.08,445.182,256.159,445.192,256.239,445.192z"/>
<circle style="fill:#616267;" cx="322.779" cy="83.475" r="16.695"/>
<circle style="fill:#696B6F;" cx="189.22" cy="83.475" r="16.695"/>
<g>
	<path style="fill:#DDDD47;" d="M321.409,184.106c-2.777,0-5.597-0.696-8.189-2.163c-34.77-19.619-79.67-19.619-114.44,0
		c-8.032,4.554-18.216,1.695-22.744-6.331c-4.532-8.032-1.695-18.216,6.331-22.744c44.77-25.271,102.496-25.271,147.265,0
		c8.027,4.527,10.864,14.712,6.331,22.744C332.898,181.046,327.236,184.106,321.409,184.106z"/>
	<path style="fill:#DDDD47;" d="M272.08,235.68c-1.326,0-2.668-0.162-4.016-0.494c-7.825-1.934-16.303-1.934-24.13,0
		c-8.94,2.212-17.999-3.239-20.211-12.201c-2.212-8.951,3.25-17.999,12.201-20.211c13.064-3.228,27.086-3.228,40.15,0
		c8.951,2.212,14.412,11.26,12.201,20.211C286.394,230.588,279.579,235.68,272.08,235.68z"/>
</g>
<g>
	<path style="fill:#C7D100;" d="M268.064,235.186c1.348,0.332,2.69,0.494,4.016,0.494c7.499,0,14.314-5.092,16.195-12.695
		c2.212-8.951-3.25-17.999-12.201-20.211c-6.532-1.614-13.304-2.421-20.075-2.421v33.382
		C260.075,233.735,264.151,234.218,268.064,235.186z"/>
	<path style="fill:#C7D100;" d="M313.22,181.944c2.592,1.467,5.413,2.163,8.189,2.163c5.825,0,11.488-3.06,14.553-8.494
		c4.532-8.032,1.695-18.216-6.331-22.744c-22.385-12.636-48.009-18.953-73.632-18.953v33.314
		C275.916,167.229,295.835,172.134,313.22,181.944z"/>
</g>
<g>
</g>
<g>
</g>
<g>
</g>
<g>
</g>
<g>
</g>
<g>
</g>
<g>
</g>
<g>
</g>
<g>
</g>
<g>
</g>
<g>
</g>
<g>
</g>
<g>
</g>
<g>
</g>
<g>
</g>
</svg>
