<?xml version="1.0" encoding="iso-8859-1"?>
<!-- Generator: Adobe Illustrator 19.0.0, SVG Export Plug-In . SVG Version: 6.00 Build 0)  -->
<svg version="1.1" id="Layer_1" xmlns="http://www.w3.org/2000/svg" xmlns:xlink="http://www.w3.org/1999/xlink" x="0px" y="0px"
	 viewBox="0 0 512.001 512.001" style="enable-background:new 0 0 512.001 512.001;" xml:space="preserve">
<g>
	<rect x="179.555" y="84.212" style="fill:#EFC589;" width="31.352" height="53.205"/>
	<path style="fill:#EFC589;" d="M195.235,99.886c-23.125,0-41.94-18.813-41.94-41.939s18.815-41.94,41.94-41.94
		s41.94,18.813,41.94,41.94C237.175,81.072,218.36,99.886,195.235,99.886z M195.235,47.359c-5.838,0-10.588,4.749-10.588,10.588
		c0,5.838,4.75,10.587,10.588,10.587s10.588-4.749,10.588-10.587C205.822,52.108,201.072,47.359,195.235,47.359z"/>
</g>
<g>
	<polyline style="fill:#B19267;" points="332.444,137.415 301.091,137.415 301.091,84.21 332.444,84.21 332.444,137.415 	"/>
	<path style="fill:#B19267;" d="M316.768,99.886c-23.125,0-41.94-18.813-41.94-41.939s18.815-41.94,41.94-41.94
		s41.94,18.813,41.94,41.94C358.708,81.072,339.893,99.886,316.768,99.886z M316.768,47.359c-5.838,0-10.588,4.749-10.588,10.588
		c0,5.838,4.75,10.587,10.588,10.587s10.588-4.749,10.588-10.587C327.355,52.108,322.605,47.359,316.768,47.359z"/>
</g>
<path style="fill:#FFAB00;" d="M111.063,235.681c-17.231-3.981-80.297-6.731-103.118-42.922
	c-13.043-20.684-7.623-43.379-0.779-58.777l5.696-12.814l13.367,4.238c46.389,14.706,102.955,32.406,113.635,36.369L111.063,235.681
	z"/>
<path style="fill:#965500;" d="M101.805,200.555c-13.695-0.374-55.461-5.683-67.34-24.519c-1.215-1.927-4.211-6.678-2.783-16.018
	c42.816,13.535,67.308,21.191,78.008,24.543L101.805,200.555z"/>
<path style="fill:#BD7F00;" d="M400.938,235.681c17.231-3.981,80.297-6.732,103.117-42.922c13.044-20.683,7.623-43.38,0.779-58.776
	l-5.696-12.814l-13.368,4.237c-46.388,14.707-102.954,32.406-113.635,36.369L400.938,235.681"/>
<path style="fill:#703F00;" d="M410.196,200.555c13.696-0.374,55.462-5.683,67.34-24.519c1.215-1.928,4.211-6.678,2.783-16.018
	c-42.816,13.535-67.308,21.191-78.008,24.543L410.196,200.555"/>
<path style="fill:#EFC589;" d="M130.053,402.282c8.32,20.04,18.531,39.115,32.456,54.716c23.421,26.24,54.003,38.995,93.492,38.995
	s70.07-12.755,93.492-38.995c13.925-15.6,24.135-34.676,32.456-54.715c-32.475-29.232-77.633-46.07-125.947-46.07
	C207.686,356.213,162.528,373.052,130.053,402.282"/>
<path style="fill:#FFAB00;" d="M406.016,336.081c11.333-30.167,20.285-53.995,20.285-92.805c0-26.635-6.087-49.586-18.089-68.216
	c-10.571-16.408-25.766-29.534-45.165-39.016c-35.532-17.368-78.109-19.377-107.046-19.377c-28.937,0-71.516,2.009-107.045,19.377
	c-19.399,9.482-34.594,22.608-45.165,39.016C91.787,193.69,85.7,216.641,85.7,243.276c0,38.811,8.951,62.639,20.285,92.805
	c3.783,10.069,7.696,20.481,11.748,32.659c3.727,11.199,7.741,22.515,12.32,33.543c32.475-29.232,77.633-46.069,125.947-46.069
	s93.473,16.838,125.947,46.07c4.58-11.029,8.594-22.346,12.32-33.544C398.321,356.562,402.233,346.15,406.016,336.081"/>
<g>
	<path style="fill:#333333;" d="M206.862,412.761c0-9.06,7.262-16.396,16.186-16.396c8.935,0,16.197,7.336,16.197,16.396
		c0,9.058-7.261,16.401-16.197,16.401C214.124,429.163,206.862,421.82,206.862,412.761z"/>
	<path style="fill:#333333;" d="M305.14,412.761c0-9.127-7.309-16.524-16.308-16.524c-9.011,0-16.32,7.398-16.32,16.524
		s7.309,16.524,16.32,16.524C297.831,429.286,305.14,421.888,305.14,412.761"/>
	<path style="fill:#333333;" d="M183.256,245.549c0-11.515,9.23-20.839,20.573-20.839c11.357,0,20.586,9.325,20.586,20.839
		c0,11.513-9.229,20.846-20.586,20.846C192.486,266.395,183.256,257.062,183.256,245.549z"/>
	<path style="fill:#333333;" d="M328.745,245.549c0-11.599-9.29-21.002-20.728-21.002c-11.452,0-20.743,9.403-20.743,21.002
		c0,11.599,9.29,21.002,20.743,21.002C319.457,266.551,328.745,257.148,328.745,245.549"/>
</g>
<path style="fill:#BDBDBF;" d="M346.292,460.453c-22.988,23.905-52.578,35.54-90.292,35.54
	C293.715,495.993,323.306,484.359,346.292,460.453"/>
<path style="fill:#B19267;" d="M288.832,429.286c-9.011,0-16.32-7.398-16.32-16.524s7.309-16.524,16.32-16.524
	c8.999,0,16.308,7.398,16.308,16.524S297.831,429.286,288.832,429.286 M256.001,356.213v139.78l0,0
	c37.715,0,67.304-11.635,90.292-35.54c1.082-1.124,2.148-2.276,3.2-3.455c13.925-15.6,24.135-34.676,32.456-54.715
	C349.473,373.052,304.316,356.213,256.001,356.213"/>
<path style="fill:#BD7F00;" d="M308.018,266.551c-11.452,0-20.743-9.403-20.743-21.002c0-11.599,9.29-21.002,20.743-21.002
	c11.438,0,20.728,9.403,20.728,21.002C328.745,257.148,319.457,266.551,308.018,266.551 M256.001,116.666v239.547
	c48.315,0,93.473,16.838,125.947,46.07l0,0c4.58-11.029,8.594-22.346,12.32-33.544c4.053-12.177,7.965-22.589,11.748-32.659
	c11.333-30.167,20.285-53.995,20.285-92.805c0-15.826-2.149-30.35-6.411-43.441c-2.104-6.462-4.722-12.573-7.851-18.32
	c-1.201-2.205-2.478-4.359-3.828-6.455c-4.662-7.236-10.225-13.836-16.65-19.764c-8.143-7.514-17.671-13.952-28.514-19.251
	c-9.809-4.795-20.155-8.419-30.603-11.153c-10.496-2.748-21.092-4.595-31.352-5.832C284.57,117.067,268.924,116.666,256.001,116.666
	"/>
<g>
</g>
<g>
</g>
<g>
</g>
<g>
</g>
<g>
</g>
<g>
</g>
<g>
</g>
<g>
</g>
<g>
</g>
<g>
</g>
<g>
</g>
<g>
</g>
<g>
</g>
<g>
</g>
<g>
</g>
</svg>
