<svg width="90" height="90" viewBox="0 0 90 90" fill="none" xmlns="http://www.w3.org/2000/svg">
<path d="M44.9997 87.9904C68.7823 87.9904 88.0619 68.7108 88.0619 44.9282C88.0619 21.1456 68.7823 1.86597 44.9997 1.86597C21.2171 1.86597 1.9375 21.1456 1.9375 44.9282C1.9375 68.7108 21.2171 87.9904 44.9997 87.9904Z" fill="#89DBEF"/>
<path d="M75.4306 14.4976C92.2248 31.2918 92.2248 58.5645 75.4306 75.3588C58.6363 92.1531 31.3636 92.1531 14.5693 75.3588" fill="#52C1DB"/>
<path d="M26.483 31.579L12.2725 15.0718L20.3107 2.72729L32.6552 10.7656L26.483 31.579Z" fill="#EFA3C2"/>
<path d="M20.3105 2.72729L32.655 10.7656L26.4828 31.579" fill="#E583B0"/>
<path d="M63.517 31.579L77.7275 15.0718L69.6892 2.72729L57.3447 10.7656L63.517 31.579Z" fill="#EFA3C2"/>
<path d="M69.6892 2.72729L57.3447 10.7656L63.517 31.579" fill="#E583B0"/>
<path d="M14.2822 21.8183L44.9999 3.44507L75.7176 21.8183L67.2487 61.8661L44.9999 79.3781L22.7511 61.8661L14.2822 21.8183Z" fill="white"/>
<path d="M45 11.7703L75.7177 21.8181L67.2488 61.866L45 79.3779" fill="#EDEBD3"/>
<path d="M25.4785 52.1054L45 48.6604L64.5216 52.1054L60.9331 86.6987L45 90.0001L29.067 86.6987L25.4785 52.1054Z" fill="white"/>
<path d="M45.0004 48.6604L64.5219 52.1054L60.9334 86.6987L45.0004 90.0001L29.0674 86.6987" fill="#EDEBD3"/>
<path d="M27.9189 74.6411L29.0673 86.6985L45.0003 89.9999L60.9333 86.6985L62.0816 74.6411L45.0003 71.6267L27.9189 74.6411Z" fill="#5E6664"/>
<path d="M29.0674 86.6985L45.0004 89.9999L60.9334 86.6985L62.0817 74.6411L45.0004 71.6267" fill="#2F423F"/>
<path d="M56.4833 10.1914L45 28.8517V41.7704L66.1005 62.8708L67.2488 61.866L75.7177 21.8182L56.4833 10.1914Z" fill="#DDDABF"/>
<path d="M44.9997 35.4545L57.7749 10.3349L47.0093 0.143541L44.9997 0V1.29187V1.43541V1.29187V0L42.9902 0.143541L32.3682 10.3349L44.9997 35.4545V35.5981V35.4545Z" fill="#5E6664"/>
<path d="M45.1435 35.5981L45 35.7416V35.5981V35.4545L57.7751 10.3349L47.0096 0.143541L45 0V1.29187V1.43541V1.29187V0.430622" fill="#2F423F"/>
<path d="M42.1292 84.976L34.9521 82.1052V76.9377L42.1292 79.9521V84.976Z" fill="#828282"/>
<path d="M47.8711 84.976L55.0481 82.1052V76.9377L47.8711 79.9521V84.976Z" fill="#828282"/>
<path d="M36.8186 44.9281C36.8186 46.7942 35.0961 48.3731 32.943 48.3731C30.7899 48.3731 29.0674 46.7942 29.0674 44.9281C29.0674 43.0621 30.7899 41.4832 32.943 41.4832C35.0961 41.4832 36.8186 43.0621 36.8186 44.9281Z" fill="#5E6664"/>
<path d="M35.6694 42.488C37.2483 43.7799 37.1048 45.933 35.6694 47.3684C34.234 48.6603 31.7938 48.6603 30.2148 47.3684" fill="#2F423F"/>
<path d="M60.9328 44.9281C60.9328 46.7942 59.2104 48.3731 57.0572 48.3731C54.9041 48.3731 53.1816 46.7942 53.1816 44.9281C53.1816 43.0621 54.9041 41.4832 57.0572 41.4832C59.2104 41.4832 60.9328 43.0621 60.9328 44.9281Z" fill="#5E6664"/>
<path d="M59.7846 42.488C61.3636 43.7799 61.22 45.933 59.7846 47.3684C58.3492 48.6603 55.909 48.6603 54.3301 47.3684" fill="#2F423F"/>
<path d="M16.0047 30L30.3588 24.1149L16.866 20.2393L14.2822 21.8182L16.0047 30Z" fill="#5E6664"/>
<path d="M28.3494 35.7416L16.5791 32.2966L18.158 39.9043L28.3494 35.7416Z" fill="#5E6664"/>
<path d="M19.0195 44.2104L19.8808 48.5167L25.9095 46.0765L19.0195 44.2104Z" fill="#5E6664"/>
<path d="M73.9947 30L75.7172 21.8182L73.1335 20.2393L59.6406 24.1149L73.9947 30Z" fill="#5E6664"/>
<path d="M73.4207 32.2966L61.6504 35.7416L71.8418 39.9043L73.4207 32.2966Z" fill="#5E6664"/>
<path d="M70.9808 44.2104L64.0908 46.0765L70.1195 48.5167L70.9808 44.2104Z" fill="#5E6664"/>
</svg>
