<?xml version="1.0" encoding="iso-8859-1"?>
<!-- Generator: Adobe Illustrator 19.0.0, SVG Export Plug-In . SVG Version: 6.00 Build 0)  -->
<svg version="1.1" id="Layer_1" xmlns="http://www.w3.org/2000/svg" xmlns:xlink="http://www.w3.org/1999/xlink" x="0px" y="0px"
	 viewBox="0 0 512 512" style="enable-background:new 0 0 512 512;" xml:space="preserve">
<path style="fill:#EFCB99;" d="M25.421,9.677C32.984,2.852,42.637,0,51.907,0c60.564,0,165.089,118.302,142.222,246.257
	c-3.551,19.872-24.379,31.507-43.568,25.238C55.86,240.552,8.892,129.814,11.391,45.385C11.891,28.287,17.514,16.811,25.421,9.677z"
	/>
<path style="fill:#FFA733;" d="M161.211,239.803c-0.066,0-0.141-0.006-0.283-0.049C85.366,215.061,42.536,122.04,44.775,46.374
	c0.217-7.441,2-10.979,3.011-11.897c0.75-0.675,2.316-1.082,4.121-1.082c10.295,0,35.145,11.387,61.42,42.765
	c39.873,47.641,57.789,109.028,47.929,164.218L161.211,239.803z"/>
<path style="fill:#D6AB75;" d="M486.58,9.677c7.907,7.134,13.529,18.611,14.029,35.709c2.499,84.428-44.467,195.164-139.132,226.097
	c-19.184,6.269-40.008-5.361-43.566-25.228C294.999,118.308,399.529,0,460.104,0C469.363,0,479.016,2.852,486.58,9.677z"/>
<path style="fill:#EE8700;" d="M350.819,239.792c-0.196,0-0.37-0.087-0.424-0.125C331.302,130.074,423.477,33.395,460.102,33.395
	c6.176,0,6.928,6.421,7.12,12.968c2.24,75.676-40.58,168.692-116.121,193.374L350.819,239.792z"/>
<path style="fill:#F5DEB2;" d="M405.998,328.486v-33.553c0-64.448-52.43-116.882-116.882-116.882H222.5
	c-64.452,0-116.882,52.434-116.882,116.882v33.553c-20.233,15.249-33.395,39.4-33.395,66.632c0,46.037,37.45,83.487,83.487,83.487
	h200.195c46.037,0,83.487-37.45,83.487-83.487C439.393,367.887,426.232,343.736,405.998,328.486z"/>
<path style="fill:#EFCB99;" d="M405.998,328.486v-33.553c0-64.448-52.43-116.882-116.882-116.882h-33.308v300.554h100.098
	c46.037,0,83.487-37.45,83.487-83.487C439.393,367.887,426.232,343.736,405.998,328.486z"/>
<circle style="fill:#95673F;" cx="205.712" cy="294.932" r="16.697"/>
<circle style="fill:#875334;" cx="305.897" cy="294.932" r="16.697"/>
<path style="fill:#E0E1F8;" d="M322.486,478.605C307.236,498.865,282.745,512,255.808,512c-26.159,0-50.649-12.467-66.344-32.95
	l66.344-44.638l0.445-0.334L322.486,478.605z"/>
<path style="fill:#BFC0D3;" d="M322.486,478.605C307.236,498.865,282.745,512,255.808,512v-77.587l0.445-0.334L322.486,478.605z"/>
<path style="fill:#EFCB99;" d="M332.727,465.692c-0.888,6.345-5.566,11.577-10.686,13.469c-11.354,4.341-46.195-7.236-66.233-33.729
	c-13.246,17.588-36.066,31.836-58.218,34.732c-8.571,1.113-17.478-5.009-18.7-14.471c-1.114-8.683,6.789-18.59,15.361-20.594
	c28.721-6.456,41.744-22.597,44.415-43.636l-27.94-27.94c-6.568-6.456-6.568-17.143,0-23.599c6.457-6.568,17.031-6.568,23.6,0
	l21.483,21.484l21.483-21.484c6.569-6.568,17.143-6.568,23.6,0c6.568,6.456,6.568,17.143,0,23.599l-27.94,27.94
	c2.894,22.373,20.371,40.408,43.078,43.302C324.935,445.989,333.842,456.453,332.727,465.692z"/>
<path style="fill:#D6AB75;" d="M332.727,465.692c-0.888,6.345-5.566,11.577-10.686,13.469c-11.354,4.341-46.195-7.236-66.233-33.729
	v-74.025l21.483-21.484c6.569-6.568,17.143-6.568,23.6,0c6.568,6.456,6.568,17.143,0,23.599l-27.94,27.94
	c2.894,22.373,20.371,40.408,43.078,43.302C324.935,445.989,333.842,456.453,332.727,465.692z"/>
<g>
</g>
<g>
</g>
<g>
</g>
<g>
</g>
<g>
</g>
<g>
</g>
<g>
</g>
<g>
</g>
<g>
</g>
<g>
</g>
<g>
</g>
<g>
</g>
<g>
</g>
<g>
</g>
<g>
</g>
</svg>
