<?xml version="1.0" encoding="iso-8859-1"?>
<!-- Generator: Adobe Illustrator 19.0.0, SVG Export Plug-In . SVG Version: 6.00 Build 0)  -->
<svg version="1.1" id="Layer_1" xmlns="http://www.w3.org/2000/svg" xmlns:xlink="http://www.w3.org/1999/xlink" x="0px" y="0px"
	 viewBox="0 0 512 512" style="enable-background:new 0 0 512 512;" xml:space="preserve">
<circle style="fill:#273B7A;" cx="256" cy="256" r="256"/>
<path style="fill:#121149;" d="M316.709,504.739C417.097,480.321,494.313,396.731,509.33,292.99L358.562,142.222l-101.136,29.372
	v72.039l-56.625-56.625l-49.517,46.146l62.383,62.383l-13.953,11.147l64.343,64.343c-19.82,12.593-48.345,30.922-46.497,30.922
	l15.672,0.583l-3.103,15.625L316.709,504.739z"/>
<path style="fill:#D0D1D3;" d="M202.045,139.969c0,0-21.501-13.231-42.01-2.646c-20.509,10.585-36.717,62.517-28.779,74.095
	c7.939,11.578,59.54,62.517,73.764,58.88c14.224-3.637,14.224-21.17,14.224-21.17L202.045,139.969z"/>
<path style="fill:#A6A8AA;" d="M309.955,139.969c0,0,21.501-13.231,42.01-2.646s36.717,62.517,28.779,74.095
	c-7.939,11.578-59.54,62.517-73.764,58.88c-14.224-3.637-14.224-21.17-14.224-21.17L309.955,139.969z"/>
<path style="fill:#FFFFFF;" d="M234.775,263.02c0,0,0,31.094-35.063,43.663c0,0,17.861-30.763,17.532-59.209L234.775,263.02z"/>
<path style="fill:#D0D1D3;" d="M277.225,263.02c0,0,0,31.094,35.063,43.663c0,0-17.863-30.763-17.532-59.209L277.225,263.02z"/>
<path style="fill:#A6A8AA;" d="M312.248,138.206C290.952,115.271,256,126.738,256,126.738s-34.952-11.467-56.248,11.467
	c-21.295,22.935,5.323,65.274,8.564,74.095c3.241,8.821,6.018,15.215,6.482,31.094c0.372,12.748,5.685,21.22,18.303,24.297
	c1.114,12.971,4.027,31.115,11.581,45.278c13.231,24.809,25.453,46.64-6.128,74.095c0,0-11.073,7.939-20.995,14.886
	c0,0,10.916,1.984,12.569,16.208c0,0,53.257-30.432,56.563-61.195c2.817-26.198-14.503-58.873-12.559-88.424
	c16.056-2.001,22.654-10.899,23.069-25.145c0.464-15.877,3.241-22.273,6.482-31.094
	C306.924,203.479,333.543,161.139,312.248,138.206z"/>
<path style="fill:#808183;" d="M312.248,138.206c-19.72-21.239-51.131-12.981-55.672-11.642V339.02
	c2.289,7.833,2.805,15.681,0,23.849v36.714c13.912-11.505,28.439-27.015,30.117-42.62c2.817-26.2-14.503-58.873-12.559-88.424
	c16.056-2.001,22.654-10.899,23.069-25.145c0.464-15.877,3.241-22.273,6.482-31.094
	C306.924,203.479,333.543,161.139,312.248,138.206z"/>
<g>
	<circle style="fill:#272525;" cx="224.418" cy="206.455" r="4.606"/>
	<circle style="fill:#272525;" cx="287.582" cy="206.455" r="4.606"/>
</g>
<path style="fill:#C92F00;" d="M255.519,126.738c0,0-24.94-8.18-45.521,3.103l45.521,47.507l46.483-46.942
	C281.245,118.317,255.519,126.738,255.519,126.738z"/>
<path style="fill:#930000;" d="M256.576,126.424v49.855l45.428-45.877C283.722,119.76,261.598,125.018,256.576,126.424z"/>
<path style="fill:#EAA22F;" d="M255.324,126.738c0,0-15.798-5.168-32.621-1.596l32.904,32.359l33.692-32.063
	C271.977,121.28,255.324,126.738,255.324,126.738z"/>
<path style="fill:#E09112;" d="M256.576,126.373v30.206l32.721-31.141C274.746,121.944,260.705,125.23,256.576,126.373z"/>
<g>
</g>
<g>
</g>
<g>
</g>
<g>
</g>
<g>
</g>
<g>
</g>
<g>
</g>
<g>
</g>
<g>
</g>
<g>
</g>
<g>
</g>
<g>
</g>
<g>
</g>
<g>
</g>
<g>
</g>
</svg>
