<?xml version="1.0" encoding="iso-8859-1"?>
<!-- Generator: Adobe Illustrator 19.0.0, SVG Export Plug-In . SVG Version: 6.00 Build 0)  -->
<svg version="1.1" id="Layer_1" xmlns="http://www.w3.org/2000/svg" xmlns:xlink="http://www.w3.org/1999/xlink" x="0px" y="0px"
	 viewBox="0 0 492 492" style="enable-background:new 0 0 492 492;" xml:space="preserve">
<circle style="fill:#F15249;" cx="245.9" cy="244" r="244"/>
<path style="fill:#C93131;" d="M418.7,71.2c95.2,95.2,95.2,249.6,0,344.8s-249.6,95.2-344.8,0"/>
<polygon style="fill:#E89510;" points="361.9,411.2 245.9,491.2 130.7,411.2 117.9,269.6 245.9,195.2 373.9,269.6 "/>
<polygon style="fill:#F2ADC5;" points="206.7,420 285.1,420 297.9,492 194.7,492 "/>
<polyline style="fill:#E28FAF;" points="205.9,420 285.1,420 297.9,492 "/>
<polygon style="fill:#FFC114;" points="397.9,360.8 245.9,466.4 94.7,360.8 77.9,175.2 245.9,78.4 413.9,175.2 "/>
<polyline style="fill:#EAAC0F;" points="413.9,175.2 397.9,360.8 245.9,466.4 94.7,360.8 "/>
<polygon style="fill:#5E6664;" points="420.3,287.2 245.9,407.2 72.3,287.2 53.9,73.6 245.9,0 438.7,73.6 "/>
<polyline style="fill:#2F423F;" points="245.9,0 438.7,73.6 420.3,287.2 245.9,407.2 72.3,287.2 "/>
<polygon style="fill:#FFCFDE;" points="109.9,157.6 245.9,206.4 382.7,157.6 345.1,336 245.9,413.6 146.7,336 "/>
<polyline style="fill:#F2ADC5;" points="245.9,206.4 382.7,157.6 345.1,336 245.9,413.6 "/>
<polygon style="fill:#FFCFDE;" points="173.9,318.4 245.9,288.8 317.9,318.4 297.9,384.8 245.9,470.4 193.9,384.8 "/>
<polygon style="fill:#E28FAF;" points="288.3,227.2 273.9,272.8 287.5,276 353.1,255.2 363.5,250.4 382.7,157.6 322.7,206.4 "/>
<g>
	<polygon style="fill:#F2ADC5;" points="202.7,227.2 217.9,272.8 203.5,276 138.7,255.2 128.3,250.4 109.9,157.6 168.3,206.4 	"/>
	<polyline style="fill:#F2ADC5;" points="245.9,288.8 317.9,318.4 297.9,384.8 245.9,470.4 	"/>
</g>
<polygon style="fill:#0AA06E;" points="205.9,249.6 165.9,236.8 165.9,214.4 205.9,227.2 "/>
<polyline style="fill:#2F423F;" points="205.9,227.2 205.9,249.6 165.9,236.8 "/>
<polygon style="fill:#0AA06E;" points="285.9,249.6 325.9,236.8 325.9,214.4 285.9,227.2 "/>
<polyline style="fill:#2F423F;" points="285.9,249.6 325.9,236.8 325.9,214.4 "/>
<polygon style="fill:#0CA6BF;" points="221.9,272.8 126.7,236 135.5,326.4 221.9,420 "/>
<polyline style="fill:#52C1DB;" points="136.3,328 221.9,420 221.9,276 "/>
<polygon style="fill:#78DEEF;" points="193.9,288 129.1,262.4 133.9,326.4 193.9,389.6 "/>
<polygon style="fill:#52C1DB;" points="181.9,297.6 130.7,278.4 135.5,327.2 181.9,376.8 "/>
<polygon style="fill:#78DEEF;" points="161.1,307.2 132.3,295.2 133.9,326.4 161.1,355.2 "/>
<polygon style="fill:#52C1DB;" points="150.7,316 132.3,309.6 133.9,326.4 150.7,344 "/>
<polygon style="fill:#0CA6BF;" points="269.9,272.8 365.1,236 356.3,326.4 269.9,420 "/>
<polyline style="fill:#52C1DB;" points="355.5,328 269.9,420 269.9,276 "/>
<polygon style="fill:#78DEEF;" points="297.9,288.8 362.7,262.4 357.9,327.2 297.9,390.4 "/>
<polygon style="fill:#52C1DB;" points="309.1,297.6 361.1,278.4 356.3,327.2 309.1,376.8 "/>
<polygon style="fill:#78DEEF;" points="329.9,308 359.5,296 357.9,325.6 329.1,356.8 "/>
<polygon style="fill:#52C1DB;" points="341.1,315.2 358.7,306.4 357.9,327.2 341.1,344 "/>
<polygon style="fill:#FFCFDE;" points="274.7,468 217.1,468 208.3,428 284.3,428 "/>
<g>
	<polyline style="fill:#5E6664;" points="211.5,440 237.9,448 237.9,468 	"/>
	<polyline style="fill:#5E6664;" points="280.3,440 253.9,448 253.9,468 	"/>
</g>
<polygon style="fill:#FFCFDE;" points="39.5,56.8 99.5,96.8 87.5,134.4 58.7,136 "/>
<polyline style="fill:#5E6664;" points="39.5,56.8 121.9,48.8 89.9,132 "/>
<polyline style="fill:#F2ADC5;" points="39.5,56.8 99.5,96.8 87.5,134.4 "/>
<polygon style="fill:#FFCFDE;" points="452.3,56.8 392.3,96.8 404.3,134.4 433.1,136 "/>
<polyline style="fill:#5E6664;" points="452.3,56.8 369.9,48.8 402.7,132 "/>
<g>
	<polyline style="fill:#F2ADC5;" points="452.3,56.8 389.9,98.4 404.3,134.4 	"/>
</g>
<g>
	<polygon style="fill:#5E6664;" points="72.3,230.4 34.7,201.6 72.3,173.6 101.1,201.6 	"/>
	<polygon style="fill:#5E6664;" points="72.3,259.2 34.7,230.4 72.3,202.4 101.1,230.4 	"/>
	<polygon style="fill:#5E6664;" points="72.3,287.2 34.7,259.2 72.3,230.4 101.1,259.2 	"/>
	<polygon style="fill:#5E6664;" points="419.5,230.4 457.1,259.2 419.5,287.2 390.7,259.2 	"/>
	<polygon style="fill:#5E6664;" points="419.5,202.4 457.1,230.4 419.5,259.2 390.7,230.4 	"/>
	<polygon style="fill:#5E6664;" points="419.5,173.6 457.1,201.6 419.5,230.4 390.7,201.6 	"/>
</g>
<g>
</g>
<g>
</g>
<g>
</g>
<g>
</g>
<g>
</g>
<g>
</g>
<g>
</g>
<g>
</g>
<g>
</g>
<g>
</g>
<g>
</g>
<g>
</g>
<g>
</g>
<g>
</g>
<g>
</g>
</svg>
