<?xml version="1.0" encoding="iso-8859-1"?>
<!-- Generator: Adobe Illustrator 19.0.0, SVG Export Plug-In . SVG Version: 6.00 Build 0)  -->
<svg version="1.1" id="Layer_1" xmlns="http://www.w3.org/2000/svg" xmlns:xlink="http://www.w3.org/1999/xlink" x="0px" y="0px"
	 viewBox="0 0 512 512" style="enable-background:new 0 0 512 512;" xml:space="preserve">
<circle style="fill:#FF6161;" cx="256" cy="256" r="256"/>
<g>
	<polygon style="fill:#D33939;" points="192.26,87.805 333.49,229.033 214.052,229.033 	"/>
	<path style="fill:#D33939;" d="M331.717,89.659L181.267,402.93l107.058,107.044c121.718-15.336,216.819-116.131,223.316-240.393
		L331.717,89.659z"/>
</g>
<path style="fill:#AFAFAF;" d="M296.436,221.68c-15.52-3.479-22.978-29.139-16.662-57.311c4.368-19.48,25.598-51.229,38.283-68.968
	c4.922-6.884,11.24-5.467,12.752,2.858c3.896,21.457,9.535,59.23,5.167,78.71C329.659,205.141,311.956,225.161,296.436,221.68z"/>
<path style="fill:#5E5E5E;" d="M300.013,226.604c-1.529,0-3.053-0.165-4.567-0.505l0,0c-9.19-2.06-16.248-10.069-19.877-22.55
	c-3.355-11.545-3.431-25.812-0.21-40.17c4.334-19.325,23.609-49.066,39.017-70.611c3.458-4.834,7.952-7.044,12.329-6.058
	c4.38,0.981,7.501,4.898,8.559,10.74c4.734,26.057,9.464,61.176,5.13,80.508C334.003,206.458,316.873,226.604,300.013,226.604z
	 M297.425,217.264c12.872,2.865,28.47-16.032,34.133-41.288c4.213-18.789-1.452-56.251-5.204-76.907
	c-0.493-2.72-1.462-3.484-1.631-3.524c-0.186-0.031-1.381,0.252-2.982,2.489c-12.214,17.079-33.333,48.54-37.547,67.327
	c-2.891,12.893-2.865,25.555,0.071,35.661C286.93,210.191,291.604,215.957,297.425,217.264L297.425,217.264z"/>
<path style="fill:#AFAFAF;" d="M215.564,221.68c15.52-3.479,22.978-29.139,16.662-57.311c-4.368-19.48-25.598-51.229-38.283-68.968
	c-4.922-6.884-11.24-5.467-12.752,2.858c-3.896,21.457-9.535,59.23-5.167,78.71C182.341,205.141,200.044,225.161,215.564,221.68z"/>
<path style="fill:#5E5E5E;" d="M211.987,226.604c-16.86,0-33.989-20.146-40.381-48.645c-4.336-19.332,0.395-54.451,5.13-80.51
	c1.058-5.842,4.179-9.757,8.559-10.738c4.377-0.976,8.873,1.224,12.328,6.056c15.408,21.547,34.685,51.288,39.019,70.613
	c3.22,14.358,3.144,28.624-0.21,40.17c-3.629,12.481-10.687,20.49-19.877,22.55l0,0C215.04,226.44,213.514,226.604,211.987,226.604z
	 M187.311,95.542c-0.014,0-0.028,0.002-0.036,0.003c-0.171,0.038-1.138,0.803-1.631,3.522c-3.753,20.658-9.418,58.12-5.204,76.909
	c5.665,25.255,21.307,44.135,34.133,41.288c5.822-1.307,10.497-7.075,13.162-16.243c2.936-10.104,2.962-22.768,0.071-35.661
	c-4.213-18.785-25.333-50.247-37.548-67.329C188.737,95.906,187.576,95.542,187.311,95.542z"/>
<path style="fill:#E5E1DF;" d="M152.566,293.867c0,96.089,46.309,128.245,103.434,128.245s103.434-32.156,103.434-128.245
	S313.125,156.544,256,156.544S152.566,197.779,152.566,293.867z"/>
<path style="fill:#CECECE;" d="M256,156.544c-0.481,0-0.957,0.028-1.436,0.033v265.509c0.481,0.005,0.955,0.026,1.436,0.026
	c57.125,0,103.434-32.156,103.434-128.245S313.125,156.544,256,156.544z"/>
<ellipse style="fill:#919191;" cx="254.276" cy="371.674" rx="87.616" ry="56.523"/>
<path style="fill:#727272;" d="M341.892,371.672c0-31.154-39.072-56.418-87.328-56.52v113.038
	C302.82,428.091,341.892,402.827,341.892,371.672z"/>
<g>
	<circle style="fill:#3A3A3A;" cx="209.248" cy="371.674" r="11.864"/>
	<circle style="fill:#3A3A3A;" cx="299.305" cy="371.674" r="11.864"/>
	<circle style="fill:#3A3A3A;" cx="210.851" cy="266.068" r="7.961"/>
	<circle style="fill:#3A3A3A;" cx="301.149" cy="266.068" r="7.961"/>
	<path style="fill:#3A3A3A;" d="M238.882,157.874L256,248.565l17.118-90.691c-5.57-0.874-11.283-1.329-17.118-1.329
		S244.453,157,238.882,157.874z"/>
</g>
<g>
	<path style="fill:#282828;" d="M273.118,157.874c-5.57-0.874-11.283-1.329-17.118-1.329c-0.481,0-0.957,0.022-1.436,0.028v84.385
		l1.436,7.608L273.118,157.874z"/>
	<path style="fill:#282828;" d="M353.93,241.85c-1.043-4.453-2.226-8.72-3.543-12.802l-30.648,19.516L353.93,241.85z"/>
	<path style="fill:#282828;" d="M358.543,272.027l-27.493,7.78l28.119,2.42C359.026,278.749,358.814,275.351,358.543,272.027z"/>
	<path style="fill:#282828;" d="M357.702,323.834c0.493-4.067,0.912-8.24,1.193-12.607l-39.155,5.735L357.702,323.834z"/>
</g>
<g>
	<path style="fill:#3A3A3A;" d="M158.07,241.85l34.19,6.716l-30.648-19.516C160.296,233.131,159.115,237.397,158.07,241.85z"/>
	<path style="fill:#3A3A3A;" d="M180.95,279.807l-27.493-7.78c-0.271,3.324-0.483,6.722-0.626,10.2L180.95,279.807z"/>
	<path style="fill:#3A3A3A;" d="M154.298,323.834l37.962-6.871l-39.153-5.735C153.388,315.594,153.805,319.767,154.298,323.834z"/>
</g>
<g>
</g>
<g>
</g>
<g>
</g>
<g>
</g>
<g>
</g>
<g>
</g>
<g>
</g>
<g>
</g>
<g>
</g>
<g>
</g>
<g>
</g>
<g>
</g>
<g>
</g>
<g>
</g>
<g>
</g>
</svg>
