<?xml version="1.0" encoding="iso-8859-1"?>
<!-- Generator: Adobe Illustrator 19.0.0, SVG Export Plug-In . SVG Version: 6.00 Build 0)  -->
<svg version="1.1" id="Layer_1" xmlns="http://www.w3.org/2000/svg" xmlns:xlink="http://www.w3.org/1999/xlink" x="0px" y="0px"
	 viewBox="0 0 496.159 496.159" style="enable-background:new 0 0 496.159 496.159;" xml:space="preserve">
<path style="fill:#4ABC96;" d="M248.083,0.003C111.071,0.003,0,111.063,0,248.085c0,137.001,111.07,248.07,248.083,248.07
	c137.006,0,248.076-111.069,248.076-248.07C496.159,111.062,385.089,0.003,248.083,0.003z"/>
<g>
	<path style="fill:#CE4C36;" d="M223.765,338.145l-19.579-5.471c0,0-8.638-3.167-2.591-9.213l16.7-25.913l-11.229-1.152
		l-29.369,34.551c0,0-4.895,6.334,6.622,8.926c0,0,98.471,14.684,118.337,56.433c0,0,2.879,1.44,3.167-6.046
		C305.823,390.259,309.854,347.646,223.765,338.145z"/>
	<path style="fill:#CE4C36;" d="M254.573,357.003c0,0,5.902,14.828,4.031,21.883c0,0,3.023,1.151,4.031-1.728
		c1.008-2.88,3.023-12.525,3.023-15.836S254.573,357.003,254.573,357.003z"/>
	<path style="fill:#CE4C36;" d="M272.039,365.546c0,0,6.976,17.524,4.764,25.86c0,0,3.573,1.362,4.765-2.041
		c1.19-3.403,3.572-14.802,3.572-18.715C285.14,366.737,272.039,365.546,272.039,365.546z"/>
</g>
<path style="fill:#E25E40;" d="M230.483,298.794c0,0-3.454,6.335,1.729,15.165c0,0,0.575,37.429-0.577,73.9v39.157l8.447,0.384
	l9.213-121.886L230.483,298.794z"/>
<path style="fill:#D8D3D2;" d="M202.458,269.426c0,0,11.517,3.84,3.455,26.105c0,0,6.527,6.527,13.437,5.758
	c0,0,13.054-15.74,17.275-22.65C236.625,278.64,232.402,253.685,202.458,269.426z"/>
<path style="fill:#EDE6E4;" d="M265.034,242.17l-63.727,24.953c0,0,29.176-3.071,30.328,11.518l-3.838,22.267
	c0,0,8.83,0.382,13.244,3.263s8.637,4.032,10.173,3.647c0,0-4.224-27.256,0-35.702C251.213,272.115,256.587,250.617,265.034,242.17z
	"/>
<path style="fill:#666565;" d="M269.257,184.585l-69.87,35.703c0,0-19.962,6.525-28.024,15.355c0,0-32.633,33.785-6.527,65.264
	c0,0,0.384-8.83,3.071-9.982l5.375,12.668c0,0,3.84-15.739,6.91-17.659c0,0,7.677,11.132,9.598,11.9c0,0,6.143-18.042,12.285-23.417
	c0,0,14.205-13.436,36.854-17.659c0,0,28.023-10.366,41.077-20.73l6.911-46.068L269.257,184.585z"/>
<path style="fill:#CE4C36;" d="M251.981,73.254c0,0-49.523,6.142-20.347,24.185l142.81,24.57L251.981,73.254z"/>
<path style="fill:#E25E40;" d="M251.981,73.254c0,0-27.856,3.455-29.477,12.794c-0.541,3.113,151.94,35.96,151.94,35.96
	L251.981,73.254z"/>
<path style="fill:#EDE6E4;" d="M319.548,176.523c0,0-11.133-48.372-64.495-67.95c0,0-28.024-12.67-31.096-22.267
	c0,0,9.98-11.517,28.024-13.052c0,0,4.224-31.096-32.247-25.337c-10.011,1.581-27.017,12.316-28.024,28.409
	c-0.385,6.142-3.071,25.721,23.418,33.782c0,0,56.433,23.035,48.371,48.372c0,0-1.152,23.034-28.792,31.095
	c0,0-31.384,12.957-37.142,31.384c0,0,41.749-8.35,67.086-29.08l-9.213,28.792c0,0,19.579-8.062,26.489-13.82
	c0,0-5.759,29.944-3.456,35.703c0,0,12.669-6.911,17.275-17.275c0,0,3.456,8.062,2.304,16.124c0,0,17.275-16.124,14.972-33.399
	c0,0,3.073,5.759,3.84,8.83C316.861,216.832,327.226,209.539,319.548,176.523z"/>
<circle style="fill:#D1D1D1;" cx="225.49" cy="74.409" r="5.758"/>
<circle style="fill:#FFFFFF;" cx="225.49" cy="74.409" r="5.134"/>
<circle style="fill:#666565;" cx="225.49" cy="74.409" r="3.167"/>
<circle style="fill:#EDE6E4;" cx="226.68" cy="73.219" r="1.188"/>
<path style="fill:#E25E40;" d="M287.684,438.151c1.728-0.959,7.005,4.222,7.006,1.151c0.001-3.072-5.527-5.773-8.158-6.911
	c-15.883-6.868-35.318-6.717-35.318-6.717c-35.894-3.647-51.06,19.963-51.06,19.963c-2.112,8.638,10.313-2.135,15.357-3.84
	c26.68-9.021,78.794,6.622,80.81,4.031C298.337,443.237,285.956,439.11,287.684,438.151z"/>
<g>
</g>
<g>
</g>
<g>
</g>
<g>
</g>
<g>
</g>
<g>
</g>
<g>
</g>
<g>
</g>
<g>
</g>
<g>
</g>
<g>
</g>
<g>
</g>
<g>
</g>
<g>
</g>
<g>
</g>
</svg>
