<svg width="41" height="45" viewBox="0 0 41 45" fill="none" xmlns="http://www.w3.org/2000/svg">
<path d="M40.1739 14.3637C40.1689 14.2959 40.1555 14.2305 40.132 14.1658C40.1219 14.1387 40.1152 14.1124 40.1026 14.086C40.0615 14.0014 40.0111 13.9217 39.9398 13.8538V13.853C39.9398 13.853 39.939 13.8522 39.939 13.8514L25.6171 0.233796C25.5449 0.164376 25.4593 0.115701 25.3695 0.0766022C25.3469 0.066229 25.3217 0.0606434 25.2974 0.052664C25.2252 0.0295238 25.1514 0.0143629 25.075 0.0103732C25.0574 0.00877734 25.0415 0 25.023 0H15.5618C12.4757 0 9.96609 2.38744 9.96609 5.32226V6.65801H6.05356C2.9675 6.65801 0.457031 9.04544 0.457031 11.9803V39.123C0.457031 42.0578 2.9675 44.4444 6.05356 44.4444H25.0809C28.1661 44.4444 30.6766 42.0578 30.6766 39.123V37.7864H34.59C37.676 37.7864 40.1857 35.3998 40.1857 32.465V14.418C40.1857 14.3988 40.1756 14.3829 40.1739 14.3637ZM25.8629 2.72417L37.3203 13.62H29.7813C27.6207 13.62 25.8629 11.9483 25.8629 9.89365V2.72417ZM28.9985 39.1222C28.9985 41.1761 27.2407 42.8478 25.0809 42.8478H6.05356C3.89298 42.8478 2.13515 41.1761 2.13515 39.1222V11.9803C2.13515 9.92557 3.89298 8.25389 6.05356 8.25389H10.8052H14.6766V16.5517C14.6766 19.4865 17.1862 21.8731 20.2714 21.8731H28.9976V36.9877L28.9985 39.1222ZM27.8121 20.2772H20.2723C18.1125 20.2772 16.3555 18.6064 16.3555 16.5517V9.38217L27.8121 20.2772ZM34.59 36.1906H30.6766V21.0752C30.6766 21.0568 30.6665 21.0401 30.6649 21.0217C30.6598 20.9539 30.6472 20.8885 30.6237 20.823C30.6137 20.7967 30.6061 20.7704 30.5935 20.7432C30.5533 20.6595 30.5021 20.5797 30.4308 20.5118C30.4308 20.511 30.4299 20.5102 30.4299 20.5102L16.1088 6.8918C16.0358 6.82318 15.9511 6.77451 15.8613 6.73541C15.837 6.72504 15.8127 6.71865 15.7875 6.71067C15.7153 6.68673 15.6432 6.67237 15.5668 6.66838C15.5492 6.66679 15.5333 6.65801 15.5148 6.65801H11.6434V5.32226C11.6434 3.26756 13.4012 1.59588 15.5609 1.59588H24.184V9.89445C24.184 12.8293 26.6944 15.2167 29.7805 15.2167H38.5059V32.465C38.5075 34.5189 36.7497 36.1906 34.59 36.1906Z" fill="#010002"/>
</svg>
