<?xml version="1.0" encoding="iso-8859-1"?>
<!-- Generator: Adobe Illustrator 19.0.0, SVG Export Plug-In . SVG Version: 6.00 Build 0)  -->
<svg version="1.1" id="Layer_1" xmlns="http://www.w3.org/2000/svg" xmlns:xlink="http://www.w3.org/1999/xlink" x="0px" y="0px"
	 viewBox="0 0 512 512" style="enable-background:new 0 0 512 512;" xml:space="preserve">
<path style="fill:#FFA733;" d="M22.261,77.913c-9.223,0-16.696,7.473-16.696,16.696c0,64.441,52.429,116.87,116.87,116.87
	c9.223,0,16.696-7.473,16.696-16.696C139.13,130.342,86.702,77.913,22.261,77.913z"/>
<path style="fill:#EBE2CB;" d="M41.208,113.556c30.822,7.191,55.088,31.457,62.28,62.28C72.666,168.644,48.4,144.378,41.208,113.556
	z"/>
<path style="fill:#CC7400;" d="M489.739,77.913c-64.441,0-116.87,52.429-116.87,116.87c0,9.223,7.473,16.696,16.696,16.696
	c64.441,0,116.87-52.429,116.87-116.87C506.435,85.386,498.956,77.913,489.739,77.913z"/>
<path style="fill:#E6D7B7;" d="M408.513,175.835c7.191-30.822,31.458-55.088,62.28-62.28
	C463.6,144.378,439.334,168.644,408.513,175.835z"/>
<path style="fill:#FFA733;" d="M189.217,0c-27.619,0-50.087,22.468-50.087,50.087v90.125l100.174-41.347V50.087
	C239.304,22.468,216.836,0,189.217,0z"/>
<path style="fill:#CC7400;" d="M322.783,0c-27.619,0-50.087,22.468-50.087,50.087v48.777l100.174,38.299V50.087
	C372.87,22.468,350.402,0,322.783,0z"/>
<path style="fill:#FF9827;" d="M423.625,363.297c-0.334,0.557-0.78,1.002-1.114,1.558l-3.449,4.007l-21.594,25.6
	c-25.71-20.369-55.875-35.395-88.821-43.186c-11.13-2.783-22.595-4.564-34.393-5.343c-6.01-0.668-12.132-0.89-18.254-0.89
	c-6.122,0-12.243,0.223-18.254,0.89c-11.797,0.779-23.263,2.56-34.393,5.343c-32.946,7.791-63.11,22.817-88.821,43.186l-21.594-25.6
	l-3.449-4.007c-0.334-0.557-0.78-1.002-1.114-1.558c-13.579-20.369-17.586-45.635-10.797-69.231l30.831-107.743
	c4.118-14.581,10.797-28.271,19.256-40.626c6.345-9.238,13.69-17.809,21.927-25.377C177.753,94.052,215.819,77.913,256,77.913
	s78.247,16.139,106.408,42.407c8.237,7.569,15.581,16.139,21.927,25.377c8.459,12.355,15.137,26.045,19.256,40.626l30.831,107.743
	C441.21,317.663,437.203,342.929,423.625,363.297z"/>
<path style="fill:#E58613;" d="M423.625,363.297c-0.334,0.557-0.78,1.002-1.114,1.558l-3.449,4.007l-21.594,25.6
	c-25.71-20.369-55.875-35.395-88.821-43.186c-11.13-2.783-22.595-4.564-34.393-5.343c-6.01-0.668-12.132-0.89-18.254-0.89V77.913
	c40.181,0,78.247,16.139,106.408,42.407c8.237,7.569,15.581,16.139,21.927,25.377c8.459,12.355,15.137,26.045,19.256,40.626
	l30.831,107.743C441.21,317.663,437.203,342.929,423.625,363.297z"/>
<path style="fill:#FFB655;" d="M434.424,294.065l-30.782-107.723c-4.18-14.625-10.833-28.264-19.31-40.664
	c-6.318-9.244-13.696-17.741-21.928-25.402c-53.724,46.964-88.156,115.469-89.597,191.932c-0.111,1.67-0.111,3.339-0.111,5.009
	c0,9.684,0.557,19.256,1.558,28.717c11.797,0.779,23.263,2.56,34.393,5.343c32.951,7.768,63.127,22.78,88.859,43.172l21.521-25.534
	l3.464-4.109c0.402-0.479,0.777-0.978,1.125-1.5C437.222,342.891,441.163,317.658,434.424,294.065z"/>
<path style="fill:#FFE477;" d="M239.193,312.209c-1.44-76.463-35.872-144.968-89.597-191.932
	c-8.232,7.66-15.61,16.158-21.928,25.402c-8.477,12.4-15.131,26.039-19.31,40.664L77.576,294.065
	c-6.739,23.592-2.799,48.826,10.81,69.239c0.348,0.522,0.722,1.022,1.125,1.5l3.464,4.109l21.521,25.534
	c25.731-20.393,55.907-35.404,88.859-43.172c11.13-2.783,22.595-4.564,34.393-5.343c1.002-9.461,1.558-19.033,1.558-28.717
	C239.304,315.548,239.304,313.878,239.193,312.209z"/>
<path style="fill:#FF9827;" d="M419.061,368.863l-21.594,25.6l-80.918,96.056c-9.46,13.468-24.71,21.482-41.183,21.482h-38.734
	c-16.473,0-31.723-8.014-41.183-21.482l-80.918-96.056l-21.594-25.6c32.39-25.823,70.79-44.077,112.974-52.313
	c10.797-2.226,21.927-3.673,33.28-4.341c5.565-0.334,11.13-0.557,16.807-0.557c5.677,0,11.242,0.223,16.807,0.557
	c11.353,0.668,22.483,2.115,33.28,4.341C348.271,324.786,386.671,343.04,419.061,368.863z"/>
<path style="fill:#E58613;" d="M419.061,368.863l-21.594,25.6l-80.918,96.056c-9.46,13.468-24.71,21.482-41.183,21.482H256V311.652
	c5.677,0,11.242,0.223,16.807,0.557c11.353,0.668,22.483,2.115,33.28,4.341C348.271,324.786,386.671,343.04,419.061,368.863z"/>
<circle cx="222.609" cy="395.13" r="16.696"/>
<circle cx="289.391" cy="395.13" r="16.696"/>
<circle cx="350.609" cy="261.565" r="16.696"/>
<circle cx="161.391" cy="261.565" r="16.696"/>
<circle style="fill:#957856;" cx="222.609" cy="395.13" r="16.696"/>
<g>
	<circle style="fill:#816952;" cx="289.391" cy="395.13" r="16.696"/>
	<circle style="fill:#816952;" cx="350.609" cy="261.565" r="16.696"/>
</g>
<circle style="fill:#696B6F;" cx="161.391" cy="261.565" r="16.696"/>
<g>
</g>
<g>
</g>
<g>
</g>
<g>
</g>
<g>
</g>
<g>
</g>
<g>
</g>
<g>
</g>
<g>
</g>
<g>
</g>
<g>
</g>
<g>
</g>
<g>
</g>
<g>
</g>
<g>
</g>
</svg>
