<svg width="71" height="70" viewBox="0 0 71 70" fill="none" xmlns="http://www.w3.org/2000/svg">
<g clip-path="url(#clip0_9_517)">
<rect width="70.3296" height="70" transform="translate(0.347656)" fill="white"/>
<path d="M35.5124 0C16.1231 0 0.347656 15.7002 0.347656 35C0.347656 54.2998 16.1231 70 35.5124 70C54.9018 70 70.6772 54.2998 70.6772 35C70.6772 15.7002 54.9018 0 35.5124 0ZM35.5124 67.3077C17.6149 67.3077 3.05264 52.8137 3.05264 35C3.05264 17.1863 17.6149 2.69231 35.5124 2.69231C53.41 2.69231 67.9722 17.1863 67.9722 35C67.9722 52.8137 53.41 67.3077 35.5124 67.3077Z" fill="black"/>
<path d="M52.4187 33.6538H36.865V18.8462C36.865 18.1017 36.2591 17.5 35.5125 17.5C34.766 17.5 34.1601 18.1017 34.1601 18.8462V33.6538H18.6064C17.8598 33.6538 17.2539 34.2556 17.2539 35C17.2539 35.7444 17.8598 36.3462 18.6064 36.3462H34.1601V52.5C34.1601 53.2444 34.766 53.8462 35.5125 53.8462C36.2591 53.8462 36.865 53.2444 36.865 52.5V36.3462H52.4187C53.1653 36.3462 53.7712 35.7444 53.7712 35C53.7712 34.2556 53.1653 33.6538 52.4187 33.6538Z" fill="black"/>
</g>
<defs>
<clipPath id="clip0_9_517">
<rect width="70.3296" height="70" fill="white" transform="translate(0.347656)"/>
</clipPath>
</defs>
</svg>
