<svg width="801" height="95" viewBox="0 0 801 95" fill="none" xmlns="http://www.w3.org/2000/svg">
<path d="M755.855 0.194599H45.145C0 0.194599 0 0.194599 0 22.7288V71.6604C0 94.1946 0 94.1946 45.145 94.1946H755.855C780.788 94.1946 801 92.6399 801 80.1946V10.1946C801 -2.25064 780.788 0.194599 755.855 0.194599Z" fill="#4A218E" fill-opacity="0.7"/>
<path d="M746.548 9.19458H47.4519C11 9.19458 11 9.19458 11 27.2285V67.1607C11 85.1946 11 85.1946 47.4519 85.1946H746.548C766.68 85.1946 783 77.1205 783 67.1607V27.2285C783 17.2686 766.68 9.19458 746.548 9.19458Z" fill="#4A218E" fill-opacity="0.7"/>
<path d="M87.3928 9.19458L23.4996 85.1585C19.4996 85.1585 24.4995 85.1585 58.1594 85.1585H73.0895L136.742 9.19458H87.3928ZM196.804 9.19458L133.152 85.1585H182.501L246.153 9.19458H196.804ZM306.216 9.19458L242.563 85.1585H291.912L355.565 9.19458H306.216ZM415.627 9.19458L351.975 85.1585H401.324L464.976 9.19458H415.627ZM525.039 9.19458L461.386 85.1585H510.735L574.388 9.19458H525.039ZM634.45 9.19458L570.798 85.1585H620.147L683.799 9.19458H634.45ZM743.862 9.19458L680.209 85.1585H729.559L787 16.5459C780.371 12.0972 769.737 9.19458 757.652 9.19458H743.862Z" fill="#D4C5FF" fill-opacity="0.5"/>
<path d="M397 9.19458V85.1946H755.715C792 85.1946 792 85.1946 792 67.1597V27.1946C792 9.19458 792 9.19458 755.715 9.19458H397Z" fill="#F4DCFF" fill-opacity="0.5"/>
<path d="M415.333 9.19453L397 31.3154V85.1946H401.174L464.182 9.19453H415.333ZM523.636 9.19453L460.628 85.1946H509.478L572.485 9.19453H523.636ZM631.939 9.19453L568.932 85.1946H617.781L680.789 9.19453H631.939ZM740.243 9.19453L677.235 85.1946H726.084L790 14.6945C790 8.69454 789 9.19453 740.243 9.19453Z" fill="white" fill-opacity="0.5"/>
</svg>
