<?xml version="1.0" encoding="iso-8859-1"?>
<!-- Generator: Adobe Illustrator 19.0.0, SVG Export Plug-In . SVG Version: 6.00 Build 0)  -->
<svg version="1.1" id="Layer_1" xmlns="http://www.w3.org/2000/svg" xmlns:xlink="http://www.w3.org/1999/xlink" x="0px" y="0px"
	 viewBox="0 0 512.003 512.003" style="enable-background:new 0 0 512.003 512.003;" xml:space="preserve">
<g>
	<g>
		<g>
			<path d="M164.097,128.811c-3.968-1.664-8.555-0.747-11.627,2.304l-21.333,21.333c-4.16,4.16-4.16,10.923,0,15.083
				c4.16,4.16,10.923,4.16,15.083,0l3.115-3.115v80.917c0,5.888,4.779,10.667,10.667,10.667s10.667-4.779,10.688-10.667V138.667
				C170.689,134.357,168.087,130.453,164.097,128.811z"/>
			<path d="M384.001,170.667c0-23.531-19.136-42.667-42.667-42.667c-23.531,0-42.667,19.136-42.667,42.667v42.667
				c0,23.531,19.136,42.667,42.667,42.667c23.531,0,42.667-19.136,42.667-42.667V170.667z M362.668,213.333
				c0,11.755-9.557,21.333-21.333,21.333c-11.776,0-21.333-9.579-21.333-21.333v-42.667c0-11.755,9.557-21.333,21.333-21.333
				c11.776,0,21.333,9.579,21.333,21.333V213.333z"/>
			<path d="M234.668,128c-23.531,0-42.667,19.136-42.667,42.667v42.667c0,23.531,19.136,42.667,42.667,42.667
				c23.531,0,42.667-19.136,42.667-42.667v-42.667C277.335,147.136,258.199,128,234.668,128z M256.001,213.333
				c0,11.755-9.557,21.333-21.333,21.333s-21.333-9.579-21.333-21.333v-42.667c0-11.755,9.557-21.333,21.333-21.333
				s21.333,9.579,21.333,21.333V213.333z"/>
			<path d="M385.644,333.205c38.229-35.136,62.357-85.333,62.357-141.205c0-105.856-86.123-192-192-192s-192,86.144-192,192
				c0,55.851,24.128,106.069,62.336,141.184L64.684,497.6c-1.536,4.117-0.405,8.725,2.837,11.669
				c2.027,1.792,4.565,2.731,7.147,2.731c1.621,0,3.243-0.363,4.779-1.109l79.787-39.893l58.859,39.232
				c2.688,1.792,6.101,2.24,9.195,1.28c3.093-1.003,5.568-3.349,6.699-6.4l23.296-62.144l20.587,61.739
				c1.067,3.157,3.541,5.632,6.677,6.72c3.115,1.067,6.613,0.64,9.365-1.216l58.859-39.232l79.787,39.893
				c1.536,0.768,3.157,1.131,4.779,1.131c2.581,0,5.12-0.939,7.125-2.752c3.264-2.923,4.373-7.552,2.837-11.669L385.644,333.205z
				 M246.017,412.267l-27.285,72.747l-52.821-35.2c-3.2-2.112-7.296-2.389-10.688-0.661L94.188,479.68l49.579-132.224
				c26.859,19.435,58.795,32.213,93.547,35.605L246.7,411.2C246.487,411.563,246.167,411.84,246.017,412.267z M256.001,362.667
				C161.9,362.667,85.335,286.101,85.335,192S161.9,21.333,256.001,21.333S426.668,97.899,426.668,192
				S350.103,362.667,256.001,362.667z M356.759,449.131c-3.413-1.728-7.509-1.472-10.688,0.661l-52.373,34.923l-33.643-100.928
				c40.341-0.853,77.589-14.187,108.16-36.331l49.579,132.203L356.759,449.131z"/>
		</g>
	</g>
</g>
<g>
</g>
<g>
</g>
<g>
</g>
<g>
</g>
<g>
</g>
<g>
</g>
<g>
</g>
<g>
</g>
<g>
</g>
<g>
</g>
<g>
</g>
<g>
</g>
<g>
</g>
<g>
</g>
<g>
</g>
</svg>
