<svg width="37" height="49" viewBox="0 0 37 49" fill="none" xmlns="http://www.w3.org/2000/svg">
<path d="M17.1053 35.2353L7.1579 31L1 46.0588L1.94737 47L10 43.2353L16.1579 47L19 40.8824L18.0526 38.0588L17.1053 35.2353Z" fill="#B50606"/>
<path d="M22 45.5L18.5 36L29.5 32.5L34.5 45.5L27.5 42.5L22 46V45.5Z" fill="#B50606" stroke="#B50606"/>
<path d="M30.9916 31.3532C34.6752 28.0471 37 23.3237 37 18.0664C37 8.10579 28.7017 0 18.5 0C8.29831 0 0 8.10579 0 18.0664C0 23.3218 2.32483 28.0471 6.00633 31.3512L0.0658098 46.8221C-0.0821902 47.2095 0.0267869 47.6431 0.339167 47.9201C0.534477 48.0887 0.779023 48.1771 1.02781 48.1771C1.184 48.1771 1.34029 48.1429 1.48829 48.0727L9.1761 44.319L14.8474 48.0105C15.1064 48.1791 15.4353 48.2213 15.7334 48.131C16.0314 48.0366 16.2699 47.8158 16.3789 47.5288L18.6235 41.6813L20.6072 47.4906C20.71 47.7877 20.9484 48.0206 21.2505 48.123C21.5507 48.2234 21.8877 48.1832 22.1529 48.0086L27.8242 44.317L35.512 48.0707C35.66 48.143 35.8162 48.1772 35.9725 48.1772C36.2212 48.1772 36.4658 48.0888 36.659 47.9182C36.9735 47.6432 37.0804 47.2076 36.9324 46.8202L30.9916 31.3532ZM17.538 38.7926L14.909 45.6378L9.81945 42.3256C9.51112 42.1269 9.11645 42.1008 8.78962 42.2634L2.90864 45.1359L7.68579 32.6942C10.2738 34.5229 13.3509 35.7253 16.6994 36.0445L17.6038 38.6922C17.5833 38.7264 17.5525 38.7524 17.538 38.7926ZM18.5 34.1255C9.43298 34.1255 2.05562 26.9209 2.05562 18.0664C2.05562 9.21189 9.43298 2.00735 18.5 2.00735C27.567 2.00735 34.9445 9.21189 34.9445 18.0664C34.9445 26.9209 27.5671 34.1255 18.5 34.1255ZM28.2085 42.2614C27.8796 42.0988 27.4849 42.1229 27.1786 42.3236L22.1323 45.6097L18.8906 36.1128C22.7776 36.0325 26.3666 34.7778 29.3123 32.6942L34.0894 45.1339L28.2085 42.2614Z" fill="#FAFF00"/>
<path d="M19.9176 12.4545V27H17.7159V14.6562H17.6307L14.1506 16.929V14.8267L17.7798 12.4545H19.9176Z" fill="black"/>
</svg>
