<?xml version="1.0" standalone="no"?>
<!DOCTYPE svg PUBLIC "-//W3C//DTD SVG 20010904//EN"
 "http://www.w3.org/TR/2001/REC-SVG-20010904/DTD/svg10.dtd">
<svg version="1.0" xmlns="http://www.w3.org/2000/svg"
 width="1200.000000pt" height="1200.000000pt" viewBox="0 0 1200.000000 1200.000000"
 preserveAspectRatio="xMidYMid meet">

<g transform="translate(0.000000,1200.000000) scale(0.100000,-0.100000)"
fill="#000000" stroke="none">
<path d="M6502 6970 c-155 -32 -259 -168 -250 -325 7 -112 63 -199 160 -250
46 -24 60 -39 103 -111 28 -46 53 -84 56 -84 3 0 29 38 57 84 43 69 59 88 97
106 58 28 129 107 149 167 9 26 16 74 16 108 0 83 -23 145 -75 203 -74 82
-204 124 -313 102z"/>
<path d="M1019 5976 c-339 -119 -440 -551 -188 -806 71 -73 176 -126 274 -140
98 -13 9695 -13 9790 0 129 19 245 90 321 196 194 271 72 648 -243 753 l-62
21 -4913 0 -4913 0 -66 -24z"/>
</g>
</svg>
