<svg width="29.69px" height="29.69px" viewBox="0 -2.85 29.69 29.69" xmlns="http://www.w3.org/2000/svg">
  <defs>
    <style>
      .cls-1 {
        fill-rule: evenodd;
      }
    </style>
  </defs>
  <path id="users" class="cls-1" d="M1448,302a5,5,0,1,1,5-5A5,5,0,0,1,1448,302Zm0-8a3,3,0,1,0,3,3A3,3,0,0,0,1448,294Zm-8.51,13.32A5.835,5.835,0,0,0,1434,304c-4.51,0-6.32,3.653-6.83,8h-1.99c0.65-5.425,3.21-10,8.82-10a7.6,7.6,0,0,1,6.75,3.65A7.129,7.129,0,0,0,1439.49,307.32ZM1434,300a6,6,0,1,1,6-6A6,6,0,0,1,1434,300Zm0-10a4,4,0,1,0,4,4A4,4,0,0,0,1434,290Zm14,14c4.4,0,6.38,3.668,6.87,8h-1.98c-0.36-3.261-1.66-6-4.89-6s-4.53,2.741-4.89,6h-1.98C1441.62,307.669,1443.6,304,1448,304Z" transform="translate(-1425.19 -288)"/>
</svg>
