<svg width="52" height="43" viewBox="0 0 52 43" fill="none" xmlns="http://www.w3.org/2000/svg">
<path fill-rule="evenodd" clip-rule="evenodd" d="M39.4034 25C37.7301 25 36.0945 24.4763 34.7033 23.4953C33.312 22.5142 32.2277 21.1197 31.5874 19.4882C30.947 17.8568 30.7795 16.0615 31.1059 14.3295C31.4323 12.5976 32.2381 11.0067 33.4213 9.75799C34.6044 8.50931 36.1118 7.65892 37.7529 7.3144C39.394 6.96989 41.0951 7.14674 42.6409 7.82252C44.1868 8.49831 45.508 9.64266 46.4376 11.111C47.3672 12.5793 47.8634 14.3055 47.8634 16.0714C47.8634 18.4394 46.972 20.7104 45.3855 22.3849C43.7989 24.0593 41.6471 25 39.4034 25ZM39.4034 10.7143C38.3994 10.7143 37.418 11.0285 36.5832 11.6171C35.7485 12.2058 35.098 13.0425 34.7138 14.0214C34.3296 15.0002 34.229 16.0774 34.4248 17.1165C34.6207 18.1557 35.1042 19.1103 35.8141 19.8595C36.5239 20.6087 37.4283 21.1189 38.413 21.3256C39.3976 21.5323 40.4184 21.4262 41.3459 21.0208C42.2734 20.6153 43.0661 19.9287 43.6239 19.0477C44.1816 18.1667 44.4794 17.131 44.4794 16.0714C44.4794 14.6506 43.9446 13.288 42.9927 12.2834C42.0407 11.2787 40.7496 10.7143 39.4034 10.7143ZM25.0044 34.5C24.1743 32.662 22.8522 31.121 21.2013 30.0674C19.5505 29.0138 17.6432 28.4937 15.7153 28.5714C8.08442 28.5714 5.02198 35.0946 4.15906 42.8571H0.791992C1.89179 33.1696 6.22322 25 15.7153 25C17.9958 24.9194 20.2555 25.4805 22.2626 26.6259C24.2696 27.7713 25.9517 29.4597 27.1364 31.5178C26.2906 32.3958 25.5722 33.4007 25.0044 34.5V34.5ZM15.7153 21.4286C13.7075 21.4286 11.7448 20.8002 10.0753 19.6229C8.40579 18.4456 7.1044 16.7723 6.33602 14.8145C5.56764 12.8567 5.3666 10.7024 5.75832 8.62405C6.15004 6.54568 7.11695 4.63655 8.53674 3.13813C9.95652 1.63971 11.7655 0.619292 13.7348 0.205879C15.7041 -0.207535 17.7454 0.0046373 19.6004 0.815576C21.4555 1.62652 23.0408 2.99976 24.1564 4.76172C25.2719 6.52367 25.8674 8.5952 25.8674 10.7143C25.8674 13.5559 24.7978 16.2811 22.894 18.2904C20.9901 20.2998 18.4078 21.4286 15.7153 21.4286ZM15.7153 3.57142C14.3768 3.57142 13.0682 3.99037 11.9552 4.77523C10.8422 5.5601 9.97472 6.67565 9.46246 7.98083C8.95021 9.28602 8.81632 10.7222 9.07747 12.1078C9.33861 13.4934 9.98322 14.7661 10.9297 15.7651C11.8763 16.764 13.0821 17.4443 14.3949 17.7199C15.7078 17.9955 17.0687 17.8541 18.3054 17.3134C19.5421 16.7728 20.5991 15.8573 21.3428 14.6827C22.0865 13.508 22.4834 12.127 22.4834 10.7143C22.4834 8.81988 21.7702 7.00306 20.501 5.66351C19.2317 4.32397 17.5103 3.57142 15.7153 3.57142ZM39.4034 28.5714C46.8482 28.5714 50.1983 35.1214 51.0274 42.8571H47.6773C47.0681 37.0339 44.8685 32.1429 39.4034 32.1429C33.9382 32.1429 31.7386 37.0375 31.1295 42.8571H27.7793C28.6084 35.1232 31.9586 28.5714 39.4034 28.5714Z" fill="black"/>
</svg>
