<?xml version="1.0" encoding="iso-8859-1"?>
<!-- Generator: Adobe Illustrator 19.0.0, SVG Export Plug-In . SVG Version: 6.00 Build 0)  -->
<svg version="1.1" id="Layer_1" xmlns="http://www.w3.org/2000/svg" xmlns:xlink="http://www.w3.org/1999/xlink" x="0px" y="0px"
	 viewBox="0 0 501.6 501.6" style="enable-background:new 0 0 501.6 501.6;" xml:space="preserve">
<circle style="fill:#89DBEF;" cx="250.8" cy="250.4" r="240"/>
<path style="fill:#52C1DB;" d="M420.4,80.8c93.6,93.6,93.6,245.6,0,339.2s-245.6,93.6-339.2,0"/>
<polygon style="fill:#EFA3C2;" points="147.6,176 68.4,84 113.2,15.2 182,60 "/>
<polyline style="fill:#E583B0;" points="113.2,15.2 182,60 147.6,176 "/>
<polygon style="fill:#EFA3C2;" points="354,176 433.2,84 388.4,15.2 319.6,60 "/>
<polyline style="fill:#E583B0;" points="388.4,15.2 319.6,60 354,176 "/>
<polygon style="fill:#FFFFFF;" points="79.6,121.6 250.8,19.2 422,121.6 374.8,344.8 250.8,442.4 126.8,344.8 "/>
<polyline style="fill:#EDEBD3;" points="250.8,65.6 422,121.6 374.8,344.8 250.8,442.4 "/>
<polygon style="fill:#FFFFFF;" points="142,290.4 250.8,271.2 359.6,290.4 339.6,483.2 250.8,501.6 162,483.2 "/>
<polyline style="fill:#EDEBD3;" points="250.8,271.2 359.6,290.4 339.6,483.2 250.8,501.6 162,483.2 "/>
<polygon style="fill:#5E6664;" points="155.6,416 162,483.2 250.8,501.6 339.6,483.2 346,416 250.8,399.2 "/>
<polyline style="fill:#2F423F;" points="162,483.2 250.8,501.6 339.6,483.2 346,416 250.8,399.2 "/>
<polygon style="fill:#DDDABF;" points="314.8,56.8 250.8,160.8 250.8,232.8 368.4,350.4 374.8,344.8 422,121.6 "/>
<polygon style="fill:#5E6664;" points="250.8,197.6 322,57.6 262,0.8 250.8,0 250.8,7.2 250.8,8 250.8,7.2 250.8,0 239.6,0.8 
	180.4,57.6 250.8,197.6 250.8,198.4 250.8,198.4 250.8,198.4 "/>
<polyline style="fill:#2F423F;" points="251.6,198.4 250.8,199.2 250.8,198.4 250.8,198.4 250.8,197.6 322,57.6 262,0.8 250.8,0 
	250.8,7.2 250.8,8 250.8,7.2 250.8,2.4 "/>
<g>
	<polygon style="fill:#828282;" points="234.8,473.6 194.8,457.6 194.8,428.8 234.8,445.6 	"/>
	<polygon style="fill:#828282;" points="266.8,473.6 306.8,457.6 306.8,428.8 266.8,445.6 	"/>
</g>
<path style="fill:#5E6664;" d="M205.2,250.4c0,10.4-9.6,19.2-21.6,19.2s-21.6-8.8-21.6-19.2s9.6-19.2,21.6-19.2
	C195.6,231.2,205.2,240,205.2,250.4z"/>
<path style="fill:#2F423F;" d="M198.8,236.8c8.8,7.2,8,19.2,0,27.2c-8,7.2-21.6,7.2-30.4,0"/>
<path style="fill:#5E6664;" d="M339.6,250.4c0,10.4-9.6,19.2-21.6,19.2s-21.6-8.8-21.6-19.2s9.6-19.2,21.6-19.2
	C330,231.2,339.6,240,339.6,250.4z"/>
<path style="fill:#2F423F;" d="M333.2,236.8c8.8,7.2,8,19.2,0,27.2c-8,7.2-21.6,7.2-30.4,0"/>
<g>
	<polygon style="fill:#5E6664;" points="89.2,167.2 169.2,134.4 94,112.8 79.6,121.6 	"/>
	<polygon style="fill:#5E6664;" points="158,199.2 92.4,180 101.2,222.4 	"/>
	<polygon style="fill:#5E6664;" points="106,246.4 110.8,270.4 144.4,256.8 	"/>
	<polygon style="fill:#5E6664;" points="412.4,167.2 422,121.6 407.6,112.8 332.4,134.4 	"/>
	<polygon style="fill:#5E6664;" points="409.2,180 343.6,199.2 400.4,222.4 	"/>
	<polygon style="fill:#5E6664;" points="395.6,246.4 357.2,256.8 390.8,270.4 	"/>
</g>
<g>
</g>
<g>
</g>
<g>
</g>
<g>
</g>
<g>
</g>
<g>
</g>
<g>
</g>
<g>
</g>
<g>
</g>
<g>
</g>
<g>
</g>
<g>
</g>
<g>
</g>
<g>
</g>
<g>
</g>
</svg>
